<?xml version="1.0" encoding="UTF-8"?>
<svg id="Layer_2" data-name="Layer 2" xmlns="http://www.w3.org/2000/svg" viewBox="0 0 1817.65 676.61">
  <defs>
    <style>
      .cls-1 {
        fill: #b9b9c1;
      }

      .cls-1, .cls-2, .cls-3, .cls-4, .cls-5 {
        stroke-width: 0px;
      }

      .cls-2 {
        fill: #88c3c9;
      }

      .cls-3 {
        fill: #495eba;
      }

      .cls-4 {
        fill: #0bcacd;
      }

      .cls-5 {
        fill: #fff;
      }
    </style>
  </defs>
  <g id="Layer_1-2" data-name="Layer 1">
    <g>
      <path class="cls-3" d="M974.23,410.45c-.07-57.68.04-115.37-.38-173.05-.06-8.81,2.91-12.08,11.95-12.01,35.17.29,70.34.22,105.5.28,0,4.04-.01,8.08-.02,12.13-33.67,34.1-41.69,72.9-23.17,116.57-3.97,2.47-2.61,9.8-9.5,9.62-8.04-.1-16.1-.65-24.1-.19-16.02.91-30.13,10.29-33.05,22.94-3.83,16.53-12.36,21.93-27.23,23.72Z"/>
      <path class="cls-4" d="M873.1,156.68c-42.64.28-85.28.95-127.91.6-11.96-.1-17.03,3.13-16.13,15.67.89,12.42.48,24.96.07,37.43-.33,9.9,4.06,14.27,13.76,14.47,21.3.45,42.59,1.15,63.82-1.35,6.53.27,13.06.54,19.58.82.88.55,1.77,1.09,2.65,1.64,10.89-3.72,21.77-7.44,32.66-11.16,17.04,85.31,54.17,296.27-6.26,322.25-8.89,3.82-20.91,4.08-37.54-3.13-32.79-238.13-49.11-301.95-57.67-301.54-6.73.33-13.5-.71-20.2-.07-10.68,1.01-14.61-2.96-14.68-13.91-.07-10.51.47-20.98-2.34-31.91-1.47-5.71-7.05-15.1-.57-23.67,4.06-5.38-2.61-11.55-5.55-16.03-2.69-4.11-9.8-3.25-14.29-.37-4.13,2.64-7,5.48-8.19-1.95-.84-6.87,9.57-4.65,9.07-11.24.57-.54,1.24-.76,2.01-.67,12.06.66,20.16-8.65,30.46-12.03,7.95-2.61,9.11-6.99,8.44-13.69,2.79-6.56,8.64-10.48,13.31-15.41,5.18-3.43,8.34-1.77,10.5,3.76,1.41,3.59,1.48,8.54,7.08,8.91,10.08,38.44,60.97,55.87,96.92,35,14.58-8.46,23.16-21.78,35.08-32.21,2.21-2.19,4.43-4.38,6.64-6.57-.07,5.09-1.27,9.41-3.78,14.3-8.87,17.3-26.91,26.12-36.95,42.08Z"/>
      <path class="cls-3" d="M874.11,155.35c-.14-1.29,3.75-5.29,11.52-13.27,12.31-12.65,20.55-19.92,24.42-27.48,2.01-3.91,3.18-7.46,3.6-11.32.15-1.38.44-2.78,1.16-3.95,2.32-3.75-.52-13.81,9.78-7.82,23.71,33.39,58.97,48.74,96.63,57.51,12.52,2.91,25.75-9.1,36.64-17.78,17.77-14.17,36.04-16.04,52.56-13.07,22.64,4.07,36.55,24.48,42.14,34.05-1.04,2.09-2.09,4.17-3.13,6.26-219.17,9.94-274.47,4.91-275.32-3.13Z"/>
      <path class="cls-4" d="M954.85,519.53c4.86-.88,11.26-2.79,13.12-7.52,1.96-4.98-2.05-10.76-3.13-12.51-4.85-7.88-6.4-25.16,9.57-67.03,4.69-4.18.84-10.38,3.36-14.45,1.87-3.02,1.89,1.27,2.71,2.33,2.55,26.52-6.76,53.79,5.54,79.76,1.36,2.88-.61,5.95-2.48,8.69-6.78,10-.36,11.55,8.25,11.53,17.37-.04,34.75.23,52.11-.28,9.79-.29,16.94,2.66,20.68,11.52,3.9,9.23,15.05,16.63,20.43,18.25,11.6,3.49,26.29,5.04,39.23-1.84,15.55-8.26,27.43-17.9,37.05-33.93,17.32-28.86,6.13-62.35-27.64-69.36-14.07-2.92-22.46-10.86-22.95-25.62-.38-11.37-22.08-35.38-32.35-36.74.08-1.96.15-3.92.23-5.88,1.06-1.2,2.11-2.41,3.17-3.62,18.26,8.94,33.21,20.18,37.88,41.19,2.43,10.92,8.59,20.54,23.51,17.82,21.02,6.09,38.23,27.63,38.52,48.21.48,34-21.68,69.47-54.8,80.75-17.25,5.87-38.66,9.12-53.79-5.43-14.03-13.48-28.29-21.16-43.26-23.25-20.42-2.86-37.67,5.16-50.84,12.03-30.58,15.94-47.12,41.22-54.79,55.46-3.13,9.39-6.26,18.77-9.39,28.16-5.98-5.48-8.3-10.65-9.34-13.8-11.54-35.04,51.49-73.76,55.33-74.85.47-.13,4.07-1.17,5.68-3.9.33-.56.54-1.23.6-2.08.31-4.77-2.58-6.47-6.92-6.78-2.5-.18-2.79-.62-3.43-1.11-1.67-1.28-1.91-3.78-1.85-5.72Z"/>
      <path class="cls-4" d="M924.59,91.5c-11.44-6.65-6.66,6.51-10.77,8.81-2.21,2.18-4.42,4.37-6.64,6.57,0-8.32.76-16.72-.16-24.94-2.37-21.06-6.31-40.21-25.69-54.98-30.98-23.61-57.84-14.15-84.99,6.34-6.92,5.22-11.78,12.75-15.48,22.14-6.44,16.31-4.26,32.44-5.67,48.64-5.6-.37-5.67-5.32-7.08-8.91-2.16-5.53-5.33-7.19-10.5-3.76,8.61-21.09,9.17-45.13,25.2-63.59,21.75-25.06,50.53-32.92,79.82-24.67,26.02,7.33,46.08,26.4,51.15,56.57,1.83,10.89,7.11,21.2,10.81,31.78Z"/>
      <path class="cls-4" d="M453.53,232.22c12.04.53,15.98,11.9,23.89,17.95,3.66,2.8,6.55,6.6,10.11,9.56,5.4,4.48,20.2,23.61,22.03,29.06q-12.23,24.94-39.75,22.94c-3.61-.26-7.25-.29-10.87-.34-8.32-.12-12.13,2.76-6.99,11.07,13.51,21.85,22.76,46.13,38.18,66.86-24.88,3.47-47.36-8.22-71.2-11.21-1.78-13.26-6.18-26.51-.17-39.8,1.14,31.57,1.76,32.33,29.48,31.66,4.8-.12,11.25,2.51,13.72-3.91,2.34-6.08,1.58-12.33-4.25-16.77-9.06-6.9-8.11-18.68-13.05-27.74-3.83-7.02-.35-15.39,11.25-14.43,6.18.52,12.51-.48,18.65.25,12.74,1.52,19.51-7.22,24.33-15.86,4.55-8.17-5.57-11.91-9.75-17.28-11.28-14.49-28.86-23.65-35.61-41.99Z"/>
      <path class="cls-5" d="M1551.38,541.66c-2.06-.1-4.12-.2-6.17-.3-12.9-11.36-23.28-25.74-39.24-33.37-3.38-1.61-6.92.92-9.95,3.22-7.9,5.99-16.53,15.45-22.76,18.12-13.83,5.95-31.4,3.41-47.44,6.35-5.11.94-13.19-3.44-20.53-1.94-7.37,1.51-15.24.48-20.32-4.54-9.53-9.44-16.06-22.28-32.01-23.06-2.32-.11-6.35-3.98-6.35-6.11-.02-12.07-9.32-21.55-8.2-34.1,1.01-11.33-.27-22.87-.54-34.32,0,0-.12.12-.12.12,3.42.6,5.45-1.73,8.15-3.22,13.88-7.63,23.02-23.56,39.76-25.46,28.82-3.27,57.83-3.86,86.67.58,3.68.57,9.82-.2,9.25,5.75-.54,5.62-6.26,4.28-10.16,4.3-21.3.12-42.61-.23-63.91.14-21.87.38-34.98,11.39-36.64,29.86l.04.93-.84.4c-11.56,5.87-17.46,12.01-7.47,25.63,6.68,9.12,3.76,24.08,15.97,30.97,34.13,19.24,68.53,17.89,102.71.49,18.58-9.46,31.47-51.21,18.1-66.4-9.86-11.2-5.51-14.97,2.44-21.29,2.89-2.3,4.83-5.18,5.65-9.03,3.51-16.6-11.78-50.77-26.63-58.72-1.76-.94-4.1-.8-5.88-1.72-18.87-9.79-39.23-5.07-58.99-6.57-13.77-1.05-24.73,3.46-33.05,13.15-5.99,6.98-12.71,5.9-19.82,5.61-4.84-.2-7.15-6.03-5.1-7.45,9.5-6.61,12.25-19.49,24.59-23.67,23.18-7.85,46.9-5.95,70.57-6.15,4.19-.04,8.52-.24,11.84,2.87,14.27,13.4,43.42,4.67,48.22,32.45.31,1.78,4.36,2.66,6.13,4.49,2.48,2.57,5.68,5.34,6.41,8.52,3.3,14.35,8.32,28.19,7.27,43.63-1.51,22.3,1.09,44.98-1.7,67.05-1.65,13.1.35,24.59,9.89,29.99,15.43,8.74,19.82,17.76,10.19,32.8ZM1404.83,421.65c20.13-3.06,40.49-4.03,60.41-.09,32.59,6.44,43.52,41.05,21.53,65.87-25.44,28.71-87.17,28.31-110.57-1.95-8.7-11.25-11.45-25.86-6.14-40.46-11.56,5.87-17.46,12.01-7.48,25.63,6.68,9.12,3.76,24.08,15.97,30.97,34.13,19.24,68.53,17.89,102.71.49,18.58-9.46,31.47-51.21,18.1-66.4-9.86-11.2-5.51-14.97,2.44-21.29,2.89-2.3,4.83-5.18,5.65-9.03,3.51-16.6-11.78-50.77-26.63-58.72-1.76-.94-4.1-.8-5.88-1.72-18.87-9.79-39.23-5.07-58.99-6.57-13.77-1.05-24.73,3.46-33.05,13.15-5.99,6.98-12.71,5.9-19.82,5.61-4.84-.2-7.15-6.03-5.1-7.45,9.5-6.61,12.25-19.49,24.59-23.67,23.18-7.85,46.9-5.95,70.57-6.15,4.19-.04,8.52-.24,11.84,2.87,14.27,13.4,43.42,4.67,48.22,32.45.31,1.78,4.36,2.66,6.13,4.49,2.48,2.57,5.68,5.34,6.41,8.52,3.3,14.35,8.32,28.19,7.27,43.63-1.51,22.3,1.09,44.98-1.7,67.05-1.65,13.1.35,24.59,9.89,29.99,15.43,8.74,19.82,17.76,10.2,32.8,5.66.81,13.22,2.73,11.5-6.62-1.68-9.09,8.53-22.97-5.9-26.69-15.54-4.01-19.45-12.55-19.42-26.64.06-29.7-1.03-59.4-.83-89.09.22-30.95-14.32-53.71-40.53-67.13-39.55-20.26-80.92-21.65-121.94-3.03-14.95,6.78-24.44,18.38-26.31,35.37-.67,6.13.11,9.74,7.82,9.12,11.95-.96,22.53.35,33.06-10.95,12.86-13.8,33.31-11.03,51.52-11.16,35.48-.25,63.62,26.23,56.82,61.39-34.61-21.94-72.09-21.1-109.78-12.26-21.46,5.04-41.34,14.38-49.65,37.77,3.42.6,5.45-1.73,8.15-3.22,13.88-7.63,23.02-23.56,39.76-25.46,28.82-3.27,57.83-3.86,86.67.58,3.68.57,9.82-.2,9.25,5.75-.54,5.62-6.26,4.28-10.16,4.3-21.3.12-42.61-.23-63.91.14-21.87.38-34.98,11.39-36.64,29.86,7.7-12.92,19.33-19.82,33.97-22.04ZM1332.17,443.97c-13.7,64.23,40.58,100.86,96.21,100.64,26.33-.11,51.71-6.54,72.36-24.94,5.15-4.59,8.54-4.65,12.91,2.29,7.06,11.2,16.69,20.04,31.55,19.41-12.9-11.36-23.28-25.74-39.24-33.37-3.38-1.61-6.92.92-9.95,3.22-7.9,5.99-16.53,15.45-22.76,18.12-13.83,5.95-31.4,3.41-47.44,6.35-5.11.94-13.19-3.44-20.53-1.94-7.37,1.51-15.24.48-20.32-4.54-9.53-9.44-16.06-22.28-32.01-23.06-2.32-.11-6.35-3.98-6.35-6.11-.02-12.07-9.32-21.55-8.2-34.1,1.01-11.33-.27-22.87-.54-34.32-3.33,3.46-4.71,7.68-5.71,12.36Z"/>
      <path class="cls-4" d="M703.38,133.21c-.21.55-.44,1.35-.37,2.3.3,4.53,6.78,6.56,6.38,8.5-.18.86-1.71,1.71-7,2-3.7.88-9.12,2.71-14,7-5.45,4.79-7.46,10.22-8.26,11.73-3.61,6.9-22.57,10.51-90.98-4.64,3.79-5.46,8.91-8.12,15.63-8.48,33.66-1.81,66.5-8.12,98.59-18.4Z"/>
      <path class="cls-4" d="M913.46,614.08c2.03-.07,4.07-.14,6.1-.21-1.85,6.27-3.69,12.55-5.54,18.82-4.9,19.01-33.35,43.19-52.67,43.29-18.28.09-36.36,3.14-54.74-4.99-23.51-10.4-37.21-27.13-43.9-50.95.05-4.13.1-8.27.15-12.4,4.5,3.36,5.19,8.45,6.68,13.41,2.14,7.1,3.25,15.32,12.21,17.95l.08.09c.02,4.03,2.02,6.14,6.08,6.23l.13.13c8.03,15.31,21.01,22.98,37.93,24.57,6.03.06,12.18.91,18.06-.02,6.65-1.05,15.68,4.61,19.48-5.93,21.1-8.95,39.51-20.53,44.31-45.39.6-3.09,3.11-3.85,5.63-4.6Z"/>
      <path class="cls-4" d="M324.7,304.08c.46-1.09.92-2.18,1.38-3.27,6.78-.95,10.92,1.39,11.01,8.81.25,19.73.62,39.46.68,59.18.02,6.17-3.23,8.75-9.08,5.55-3.14-1.72-5.64-4.68-9.66-4.44-8.48-4.43-11.23-14.3-18.72-19.68,2.06-9.29,7.62-16.72,12.87-24.31,8.26-4.95,14.38-11.03,11.52-21.85Z"/>
      <path class="cls-4" d="M604.27,369.86c-.36,3.95-.72,7.9-1.08,11.85-21.34-5.42-41.97.68-62.69,4.21-5.1.87-9.98,2.6-15.25,1.79.76-1.83,1.52-3.67,2.28-5.5,11.78-16.84,23.57-33.68,35.35-50.53.75,13.28-9.24,23.94-9.57,38.15,10.33,0,20.14,0,29.95,0,11.56,0,17.05-6.05,17.08-17.33.07-19.73.09-39.45.02-59.18-.02-4.51,1.01-9.82-5.78-10.81,2.24-4.42,4.49-8.85,6.73-13.27.98.15,1.97.3,2.95.45v100.18Z"/>
      <path class="cls-4" d="M418.76,338.3c-6.01,13.3-1.61,26.55.17,39.8-1.54,1.54-3.08,3.08-4.62,4.63-1.36-58.51-2.01-117.02.36-175.51,5,4.71,14.4,3.01,16.78,11.54-9.66,3.37-12.89,10.25-12.78,20.28.36,33.09.11,66.18.09,99.27Z"/>
      <path class="cls-2" d="M762.87,607.63c-.05,4.14-.1,8.27-.15,12.4-1.78-3.64-4.28-8.52-7.49-14.16-3.9-6.84-7.71-12.77-9.92-15.99-4.65-6.75-15.25-22.28-34.27-33.37-9.86-5.75-20.88-9.7-33.25-11.84-1.1-1.31-2.95-3.89-3.9-7.64-1.06-4.2-.42-7.69,0-9.39,27.62-7.52,40.42-3,46.93,3.13,13.13,12.35,7.55,37.63,25.81,48.75,3.8,2.31,7.43,3.29,9.76,3.75.05.84.16,1.67.34,2.49-.18,5.41-1.03,11.08,5.5,13.82.22,2.68.44,5.36.66,8.04Z"/>
      <path class="cls-3" d="M1147.66,157.81c1.34-2.29,2.69-4.58,4.04-6.86,16.15,15.49,15.59,47.25-1.16,67.11-2.84-20,1.77-40.34-2.87-60.24Z"/>
      <path class="cls-1" d="M1081.75,372.82c-.27-.9-.45-1.82-.54-2.75"/>
      <path class="cls-4" d="M341.34,282.33c-.33,35.27-.65,70.55-.98,105.81-5.75-7.67-19.45-6.03-21.34-18.22,4.03-.24,6.52,2.72,9.66,4.44,5.85,3.2,9.1.62,9.08-5.55-.06-19.73-.44-39.46-.68-59.18-.09-7.42-4.23-9.76-11.01-8.81,4.18-8.74,8.36-17.47,13.47-28.15.89,4.81,1.34,7.24,1.79,9.66Z"/>
      <path class="cls-4" d="M744.29,106.82c.67,6.71-.49,11.08-8.44,13.69-10.31,3.38-18.4,12.69-30.46,12.03,10.66-12.07,24.84-18.81,38.9-25.72Z"/>
      <path class="cls-4" d="M1081.2,370.08c.09.93.27,1.85.54,2.75-1.05,1.21-2.11,2.41-3.17,3.61-2.32-.09-4.64-.19-6.96-.28l-.07-.06c.65-8.92-13.26-3.53-12.94-12.12,6.88.18,5.52-7.15,9.5-9.62,4.89,4.83,6.47,12.22,13.1,15.72Z"/>
      <path class="cls-5" d="M1607.72,541.35c-2.13,0-4.26-.01-6.39-.02-11.84-3.84-12.55-13.19-12.53-23.65.2-95.59.15-191.17.18-286.76q0-26.94,26.31-30.17c2.47-.31,4.8-1.8,7.19-2.75v151.44c28.2-37.03,63.65-42.92,101.53-37.97,49.96,6.53,81.07,39.24,91.24,92.8,9.73,51.28-10.74,101.09-51.78,126-48.6,29.5-113.02,13.96-142.27-34.27-.67-1.1-1.72-1.96-2.59-2.93-.61.75-1.23,1.5-1.84,2.25-5.59,7.96-1.56,16.96-2.76,25.4-.61,4.27,1.77,10.28-4.85,11.35-11.13,1.8,1.22,6.56-1.44,9.26ZM1777.74,426.39c-.17-45.1-25.6-77.96-62.99-81.4-46.28-4.26-80.72,19.46-87.01,63.24-8.92,62.11,26.96,102.12,82.54,99.73,40.48-1.73,67.65-33.95,67.46-81.58ZM1599.69,194.87c-11.05-2.6-14.7,1.5-14.71,13.71-.11,105.16,3.1,210.36-2.51,315.46-.83,15.6,3.79,21.08,18.86,17.3-11.84-3.84-12.55-13.19-12.53-23.65.2-95.59.15-191.17.18-286.76q0-26.94,26.31-30.17c2.47-.31,4.8-1.8,7.19-2.75-6.53-8.39-15.23-1.37-22.79-3.14ZM1617.53,532.69c-.57-12.44-.54-24.9-.77-37.36-5.59,7.96-1.56,16.96-2.76,25.4-.61,4.27,1.77,10.28-4.85,11.35-11.13,1.8,1.22,6.56-1.44,9.26,7.67,2.09,10.15-1.16,9.81-8.66Z"/>
      <path class="cls-3" d="M1091.28,237.79c0-4.04.01-8.08.02-12.13,6.2.3,12.41-2.9,18.59.01-6.78,3.23-10.78,10.38-18.61,12.11Z"/>
      <path class="cls-4" d="M324.7,304.08c2.86,10.82-3.26,16.9-11.52,21.85,1.23-8.66,7.21-14.82,11.52-21.85Z"/>
      <path class="cls-4" d="M594.59,282.51c6.79,1,5.77,6.3,5.78,10.81.07,19.73.05,39.45-.02,59.18-.04,11.28-5.52,17.34-17.08,17.33-9.81,0-19.62,0-29.95,0,.33-14.21,10.31-24.87,9.57-38.15,8.8-17.54,19.79-33.66,31.7-49.18Z"/>
      <path class="cls-4" d="M850.54,532.4c.05-.83.14-1.66.26-2.49-.09-99.28-.19-198.55-.28-297.82,0,0-.35-.28-.35-.27,30.14.12,60.28.78,90.4.1,12.67-.28,17.1,3.31,16.9,16.54-.73,47.81-.4,95.64-.13,143.45.03,5.51-3.47,13.08,5.63,15.65.33,37.33.65,74.65.98,111.98,0,0-1.17.83-1.17.83-12.38-2.82-11.98-12.36-11.97-22.07.08-77.11.08-154.22-.09-231.33,0-4.54,2.5-12.38-5.71-11.66-5.68.5-14.19-.27-16.78,5.91-3.11,7.44,5.28,7.01,9.48,8.83,3.69,1.6,6.75,3.67,6.14,7.87-.71,4.93-5.16,4.44-8.69,4.34-6.06-.17-11.35,1.89-15.93,5.48-6.3,4.94-12.11,5.34-18.09-.36-2.59-2.47-5.31-5.73-9.4-3.98-5.03,2.17-3.36,7.13-3.39,11.03-.15,22.92,0,45.85-.16,68.77-.03,4.73,1.48,10.03-3.16,15.49-4.18-5.7-2.91-10.94-2.93-15.74-.11-33.34,0-66.69-.14-100.03-.02-4.86,1.47-11.66-6.77-11.22-6.91.37-5.58,6.42-5.62,10.83-.14,19.28.04,38.56-.16,57.83-.04,3.79,1.66,10.81-3.57,10.33-12.96-1.19-8.62,7.85-8.65,13.26-.27,57.83-.08,115.66-.33,173.5-.02,5.41,3.57,13.31-6.31,14.96Z"/>
      <path class="cls-4" d="M962.96,407.56c-9.1-2.56-5.6-10.14-5.63-15.65-.26-47.82-.6-95.65.13-143.45.2-13.23-4.23-16.82-16.9-16.54-30.12.67-60.26.02-90.4-.1.83-8.03,7.28-6.17,11.92-6.2,29.6-.23,59.2.11,88.79-.27,9.22-.12,12.87,2.78,12.78,12.45-.5,56.59-.52,113.18-.7,169.77Z"/>
      <path class="cls-4" d="M1058.61,363.98c-.32,8.6,13.59,3.2,12.94,12.12-10.03.65-22.94,5.1-29.26,3.12-21.01-6.58-23.85,7.76-30.18,18.67-7.11,12.28-12.55,26-31.62,22.46-.82-1.06-.85-5.35-2.71-2.33-2.52,4.07,1.33,10.27-3.36,14.45-.06-7.34-.12-14.68-.18-22.02,14.87-1.79,23.4-7.19,27.23-23.72,2.93-12.65,17.04-22.03,33.05-22.94,8-.46,16.06.1,24.1.19Z"/>
      <path class="cls-4" d="M850.51,232.09c.09,99.27.19,198.54.28,297.82-1.27-.19-2.54-.38-3.81-.58.12-93.27.19-186.54.52-279.81.02-5.8-2.69-12.47,3.01-17.44Z"/>
      <path class="cls-4" d="M850.54,532.4c1.51-.23,4.07-.86,5.69-2.9,3.14-3.95.76-10.63.15-12.49-4.85-14.83-19.96-97.83-11-156,2.95-19.16,6.67-23.66,7-42,.3-16.68,3.21-33.36,2-50-.14-1.91-.52-6.23,2-10,2.01-3.01,4.04-2.91,10-7,7-4.8,7.27-7.03,10-7,5.35.06,9.44,8.71,11,12,4.72,9.99,2.06,14.92,7,19,3.84,3.16,6.76,1.27,10,5,3.73,4.29,1.91,9.17,4.88,10.51,1.6.72,4.97.12,9.95-3.78,4.57-3.58,9.86-5.65,15.93-5.48,3.53.1,7.98.59,8.69-4.34.61-4.21-2.45-6.28-6.14-7.87-4.2-1.82-12.59-1.39-9.48-8.83,2.59-6.18,11.1-5.42,16.78-5.91,8.21-.72,5.7,7.12,5.71,11.66.17,77.11.17,154.22.09,231.33-.01,9.72-.4,19.26,11.97,22.07.91,3.21,2.48,5.72,6.24,6,4.17.32,6.94,2.01,6.65,6.78-.06.89-.28,1.59-.62,2.16-1.55,2.6-4.79,3.63-5.41,3.82-5.72,1.77-35.31,23-48.59,54.23-1.98,4.66-4.67,12.07-6.26,21.9-2.41-.27-4.85-.09-6.12,1.43-.68.82-.78,1.75-.83,1.99-4.81,24.86-23.21,36.44-44.32,45.39-12.64-.02-25.27-.03-37.91-.05-14.41-2.36-21.61-19.3-37.55-18.58,0,0-.13-.13-.13-.13.18-4.23-1.89-6.26-6.08-6.23,0,0-.08-.09-.08-.09.31-7.73-.58-14.55-4.82-21.93-5.66-9.86-11.87-21.83-11.13-32.42,1.48-21.18,11.9-41.44,7.95-63.59-.22-1.22,1.3-2.74,2.01-4.12,6.12-6.49,12.66-12.64,18.24-19.57,7.46-9.25,13.21-7.36,18.92,1.5,3.95,6.12,4.04,14.93,12.43,17.97-1.79,21.66,13.41,15.82,25.17,15.56Z"/>
      <path class="cls-4" d="M825.38,516.84c-8.4-3.04-8.49-11.85-12.43-17.97-5.71-8.86-11.47-10.75-18.92-1.5-5.58,6.92-12.13,13.07-18.25,19.57-.13-11.28-.8-22.26-4.01-33.41-5.09-17.71-17.09-30.61-27.37-44.81.1-9.72,2.29-20.83-13.72-19.29-1.65.16-3.45-1.96-5.28-2.81-13.88-6.39-28.56-11.27-40.27-21.69.97-2.09,1.94-4.17,2.91-6.26.02-5.21.4-10.45,0-15.63-2.21-29.04,2.26-57.57,6.29-86.14.45-3.23.76-6.49,4.08-7.82,12.03-4.83,19.5-15.52,28.92-23.45,10.4-8.76,22.32-14.9,32.8-23.24,17.71,0,35.44.4,53.13-.18,9.66-.32,12.52,3.36,12.49,12.73-.33,90.64-.3,181.27-.37,271.91Z"/>
      <path class="cls-4" d="M775.18,104.08c1.42-16.2-.77-32.33,5.67-48.64,3.71-9.39,8.57-16.93,15.48-22.14,27.16-20.49,54.01-29.94,84.99-6.34,19.38,14.77,23.33,33.92,25.69,54.98.92,8.22.16,16.62.16,24.94-11.92,10.42-20.5,23.74-35.08,32.2-35.95,20.87-86.84,3.44-96.92-35Z"/>
      <path class="cls-4" d="M760.13,232.38c-10.49,8.33-22.4,14.48-32.8,23.24-9.42,7.93-16.89,18.62-28.92,23.45-3.31,1.33-3.62,4.59-4.08,7.82-4.03,28.58-8.5,57.1-6.29,86.14.13,1.73.12,2.49.17,3.92.55,15.98-.59,28.96-1.81,38.07-5.21-3.13-10.43-6.26-15.64-9.39,2.76-14.12,5.03-29.83,6.26-46.93,2.32-32.37.3-60.99-3.13-84.47,0,0-14.97-74.67-3.13-109.5,1.32-3.87,4.73-13.93,13.88-18.25,3.82-1.81,7.46-2.05,9.68-2.04,1.19,7.42,4.07,4.59,8.19,1.95,4.49-2.88,11.59-3.74,14.29.37,2.94,4.49,9.61,10.66,5.55,16.03-6.48,8.58-.9,17.96.57,23.67,2.81,10.93,2.27,21.4,2.34,31.91.07,10.95,4,14.92,14.68,13.91,6.67-.63,13.46,0,20.2.07Z"/>
      <path class="cls-4" d="M980.49,420.35c19.07,3.54,24.51-10.18,31.62-22.46,6.33-10.92,9.17-25.25,30.18-18.67,6.33,1.98,19.23-2.47,29.26-3.12,0,0,.07.06.07.06.06,4.25,2.38,6.23,6.73,6.17,10.27,1.36,31.97,25.37,32.35,36.74.49,14.77,8.87,22.7,22.95,25.62,33.77,7.02,44.96,40.5,27.64,69.36-9.62,16.03-21.5,25.67-37.05,33.93-12.94,6.87-27.63,5.33-39.23,1.84-5.37-1.62-16.53-9.02-20.43-18.25-3.74-8.86-10.9-11.81-20.68-11.52-17.36.51-34.74.24-52.11.28-8.6.02-15.02-1.53-8.25-11.53,1.86-2.74,3.84-5.81,2.48-8.69-12.3-25.96-2.99-53.23-5.54-79.76Z"/>
      <path class="cls-4" d="M1078.35,382.32c-4.35.06-6.67-1.92-6.73-6.17,2.32.09,4.63.18,6.96.28-.07,1.96-.15,3.93-.22,5.89Z"/>
      <path class="cls-4" d="M418.76,338.3c.02-33.09.26-66.18-.09-99.27-.11-10.03,3.12-16.91,12.78-20.28,2.42.45,4.83.9,7.24,1.35-.2,3.72,1.62,5.33,5.28,4.99.36,6.18,4.61,7.12,9.56,7.12,6.75,18.34,24.33,27.49,35.61,41.99,4.18,5.37,14.3,9.12,9.75,17.28-4.82,8.64-11.58,17.39-24.33,15.86-6.14-.73-12.47.26-18.65-.25-11.61-.97-15.08,7.41-11.25,14.43,4.94,9.06,3.99,20.84,13.05,27.74,5.83,4.44,6.59,10.7,4.25,16.77-2.47,6.42-8.92,3.8-13.72,3.91-27.72.67-28.34-.09-29.48-31.66Z"/>
      <path class="cls-4" d="M443.96,225.1c-3.66.34-5.48-1.27-5.28-4.99,3.1.26,4.73,2.05,5.28,4.99Z"/>
      <path class="cls-4" d="M756.37,583.28c-1.03-25.23,10.93-49.27,6.82-74.77-3.8-23.54-10.1-45.95-34.69-56.17-8.32-3.46-14.19-8.16-18.02-15.82-.88-1.75-2.54-3.1-9.88-9.63-8.6-7.66-11.17-9.47-13.89-11.08-1.85-1.09-3.43-1.9-4.53-2.43.08-10.23.16-20.46.24-30.68,1.87,1.99,3.74,3.97,5.6,5.95-.97,2.08-1.94,4.17-2.91,6.26-.21,5.69-1.23,12.61,5.32,14.8,19.71,6.6,35.05,21.08,53.95,28.99,10.28,14.21,22.28,27.1,27.37,44.81,3.21,11.15,3.88,22.13,4.01,33.41-.71,1.38-2.22,2.91-2.01,4.12,3.95,22.15-6.47,42.41-7.95,63.59-.74,10.59,5.47,22.56,11.13,32.42,4.24,7.38,5.13,14.21,4.82,21.93-8.96-2.63-10.07-10.85-12.21-17.95-1.49-4.96-2.18-10.05-6.68-13.41-.22-2.68-.44-5.36-.66-8.05-.96-4.96-1.07-10.25-5.5-13.81-.18-.82-.3-1.65-.34-2.49Z"/>
      <path class="cls-4" d="M788.05,645.44c15.94-.73,23.14,16.21,37.55,18.58.13,2,.25,4,.37,6-16.92-1.59-29.9-9.26-37.93-24.57Z"/>
      <path class="cls-4" d="M825.98,670.01c-.12-2-.25-4-.37-6,12.63.02,25.27.03,37.91.05-3.8,10.54-12.82,4.87-19.48,5.93-5.87.93-12.03.08-18.06.02Z"/>
      <path class="cls-4" d="M781.84,639.09c4.19-.03,6.26,2,6.08,6.23-4.06-.09-6.06-2.19-6.08-6.23Z"/>
      <path class="cls-4" d="M756.71,585.77c4.43,3.57,4.54,8.86,5.5,13.81-6.53-2.73-5.68-8.41-5.5-13.81Z"/>
      <path class="cls-4" d="M887.79,418.36c-.54.83-1.05,2.57-2.12,3.04-1.83.8-3.01-.84-2.93-2.44.07-1.28.87-3.15,1.87-3.61,1.8-.84,2.63.83,3.18,3.02Z"/>
      <path class="cls-4" d="M744.39,438.71c-18.9-7.91-34.24-22.39-53.95-28.99-6.55-2.19-5.53-9.11-5.32-14.8,11.71,10.42,26.39,15.3,40.27,21.69,1.83.84,3.63,2.97,5.28,2.81,16.01-1.54,13.82,9.57,13.72,19.29Z"/>
      <path class="cls-5" d="M1208.04,507.4c32.5,0,61.54.75,90.51-.34,12.91-.49,13.84,5.9,12.15,14.88-1.47,7.79,7.1,20.94-11.53,20.4-30.69-.89-61.43-.57-92.13-.1-8.92.14-12.76-1.38-12.72-11.63.44-108.8.47-217.61.28-326.41-.02-8.81,2.54-11.82,11.4-11.65,33.45.65,26.61-3.79,26.84,25.58.58,74.44-.21,148.89.67,223.33.22,18.36-2.72,34.47-14.3,48.84-3.51,4.35-6.17,9.39-11.16,17.11ZM1226.09,332.76c0-39.6,0-79.2-.01-118.8,0-6.26.93-12.78-8.83-13.01-9.06-.21-9.79,4.89-10.01,11.94-.73,23.36-1.88,46.97-1.07,70.05,1.77,49.98-.04,99.9,1.11,149.83.11,4.61,1.51,9.96-1.84,13.63-11.24,12.31.24,22.46,3.38,32.93,1.44,4.8,9.56,4.57,10.09-1.41,1.06-11.8,8.13-21.54,7.66-34.2-1.37-36.94-.49-73.97-.49-110.96ZM1226.08,213.96c0-6.26.93-12.78-8.83-13.01-9.06-.21-9.79,4.89-10.01,11.94-.73,23.36-1.88,46.97-1.07,70.05,1.77,49.98-.04,99.9,1.11,149.83.11,4.61,1.51,9.96-1.84,13.63-11.24,12.31.24,22.46,3.38,32.93,1.44,4.8,9.56,4.57,10.09-1.41,1.06-11.8,8.13-21.54,7.66-34.2-1.37-36.94-.49-73.97-.49-110.96,0-39.6,0-79.2-.01-118.8Z"/>
      <g>
        <path class="cls-5" d="M1147.66,157.81c-85.3-.13-170.6-.24-255.9-.42-6.22-.01-12.44-.47-18.66-.72-42.64.28-85.28.95-127.91.6-11.96-.1-17.03,3.13-16.13,15.67.89,12.42.48,24.96.07,37.43-.33,9.9,4.06,14.27,13.76,14.47,21.3.45,42.59,1.15,63.82-1.35,0,0,0,0,0,0h0c4.65-3.74,9.21-5.24,13.63-3.55-4.43-1.69-8.98-.19-13.63,3.55,6.53.27,13.06.54,19.58.82.88.55,1.77,1.09,2.65,1.64,88.65-.25,177.32-.34,265.99-.28,2.03,0,15.82.01,17.84.01,9.7-.31,19.42-.62,29.13-.93.65-1.44,1.43-1.51,2.34-.24,3.35-.92,5.21-3.32,6.29-6.46-2.84-19.99,1.77-40.33-2.87-60.23Z"/>
        <path class="cls-5" d="M994.17,224.74c-37.94-.19-75.87-.38-113.81-.57,21.15.95,29.99,4.65,29.75,13.59-1.75,63.13-1.79,126.26-2.41,189.39,1.13,41.64,2.26,83.28,3.38,124.92,49,3.41,65.73-2.56,63.66-18.86-3.3-26.04.57-52.17,1.42-78.26-.21-8.19-.41-16.38-.61-24.57-.22-64.35.13-128.7-1.28-193.05-.16-7.21,5.22-11.07,19.91-12.6Z"/>
      </g>
      <path class="cls-2" d="M762.39,600c-.75-.2-1.8-.51-3-1-13.67-5.62-19.27-23.42-24.44-30.17-.31-.41-1.98-2.61-4.08-5.72-.24-.35-.45-.68-.68-1.04-10.74-16.88-9.12-25.45-15.64-31.29-4.89-4.38-14.84-7.65-37.54,0v-122.02c13.3,6.57,23.75,13.36,31.29,18.77,10.64,7.64,22.68,16.41,34.41,31.29,7.58,9.6,12.53,18.58,15.64,25.03,4.04,9.5,5.71,17.99,6.26,25.03.01.17.09.97.13,2.04.42,10.8-.97,18.29-1.84,24.05-.77,5.08-1,10.33-1.42,20.85-.73,18.02.21,34.73.91,44.19Z"/>
      <path class="cls-5" d="M491.29,394.93c-.39-1.88-.78-3.76-1.16-5.62-15.42-20.73-24.67-45.01-38.18-66.86-5.14-8.31-1.33-11.19,6.99-11.07,3.63.05,7.26.08,10.87.34q27.52,1.99,39.75-22.93c14.27-22.18,29.01-44.06,41.02-67.6,12.86-20.37,25.72-40.74,38.57-61.1,25.47-.66,50.97-.9,76.42-2.21,10.92-.56,13.11,4.21,13.09,13.7-.31,116.18-.39,232.36-.53,348.54-3.22,3.06-3.2,6.15-.08,9.27-.01,1.05-.02,2.1-.03,3.15-13.48.43-27.53-1.38-40.31,1.83-17.29,4.34-24.72.77-24.75-17.18-.07-44.28.04-88.56-.08-132.84-.02-6.28,2.53-14.6-8.62-14.47v-100.18c-.98-.15-1.97-.3-2.95-.45-2.24,4.42-4.49,8.85-6.73,13.27-11.92,15.52-22.91,31.64-31.7,49.18-11.78,16.84-23.57,33.68-35.35,50.53-6.16.27-12.51-.48-16.87,5.69-4.72,6.69-11.76,7.85-19.37,7.03ZM603.18,381.71c.11,49.75.56,99.51.07,149.26-.11,11.05,3.03,14.02,13.92,13.57,20.16-.83,40.4,0,60.6.14.08-4.05.17-8.09.25-12.14-13.48.43-27.53-1.38-40.31,1.83-17.29,4.34-24.72.77-24.75-17.18-.07-44.28.04-88.56-.08-132.84-.02-6.28,2.53-14.6-8.62-14.47-.36,3.95-.72,7.9-1.08,11.85ZM510.66,387.9c-4.72,6.69-11.76,7.85-19.37,7.03q12.81,18.04,25.74,1.65c2.5-3.15,5.47-5.93,8.21-8.87.76-1.83,1.52-3.67,2.28-5.5-6.16.27-12.51-.48-16.87,5.69ZM678.05,529.39c.03-3.09.05-6.18.08-9.27-3.22,3.06-3.2,6.15-.08,9.27Z"/>
      <g>
        <path class="cls-5" d="M300.31,350.24c-16.45,31.31-33.14,62.5-49.2,94.01-4.02,7.88-8.69,11.92-17.83,10.74-5.64-.73-11.65-1.08-17.15.07-29.6,6.2-43.92-8.14-55.82-34.11-24.9-54.34-53.22-107.12-80.14-160.54-1.09-2.16-2.28-4.28-6.44-5.76,0,10.5-.01,21,0,31.5.12,80.8-.07,161.6.71,242.4.12,12.96-4.02,15.96-15.9,15.18-14.53-.95-29.25-1.05-43.75.12-11.78.95-14.87-2.47-14.78-14.42.64-84.45.45-168.9.53-253.35.03-34.93.33-69.86-.08-104.78-.11-9.12,1.74-12.79,11.95-12.49,25.52.76,51.09.63,76.62-.14,8.82-.27,13.26,3.18,16.87,10.38,35.45,70.67,70.7,141.43,103.67,213.31.66,1.77,1.62,2.26,3.06.73,0,0,.72-.45.71-.45,4.77-.67,9.05.43,12.03-6.52,7.2-16.77,16.05-32.89,25.05-48.81,7.39-13.06,14.23-25.96,12.24-41.63.49-1.31.99-2.62,1.48-3.93,4.61.29,10.24,1.44,10.62-5.33.7-12.63,8.58-21.47,15.23-30.97,12.33-17.64,25.19-35.02,22.18-58.46.83-1.74,1.65-3.49,2.48-5.23,10.92,3.9,8.97-9.23,15.19-11.5,18.66-6.8,38.13-9.28,57.51-6.24,11.61,1.82,22.06,7.35,19.78,23.69-.84,5.99-6.05,16.32,6.2,19.32,0,0,1.37.2,1.37.2-2.37,58.5-1.72,117-.36,175.51.06,44.8.16,89.6.11,134.4,0,5.67-.77,11.34-1.18,17.02-.62-.89-1.48-1.27-2.56-1.13-4.59,3.01-9.19,6.02-13.78,9.04-.9.32-1.78.29-2.65-.09-11.15-6.53-23.37-3.04-34.9-2.7-12.79.38-15.64-4.31-15.57-16.2.43-74.24.23-148.48.07-222.72-.01-6.03,2-12.53-2.51-18.01-.45-2.43-.9-4.85-1.79-9.66-5.11,10.67-9.29,19.41-13.47,28.14-.46,1.09-.92,2.18-1.38,3.27-4.32,7.03-10.3,13.18-11.52,21.84-5.26,7.59-10.81,15.02-12.87,24.31Z"/>
        <path class="cls-5" d="M340.36,388.14c.14,7.74.35,15.48.41,23.23.36,43.88.68,87.76,1.02,131.64,1.93-.7,3.72-.74,5.14,1.03,15.61-.06,31.23-.13,46.85-.19-.24-.73-.09-1.36.46-1.89-11.15-6.53-23.36-3.04-34.9-2.7-12.79.38-15.64-4.31-15.57-16.2.43-74.24.23-148.48.07-222.72-.01-6.03,2-12.53-2.51-18.01-.33,35.27-.65,70.55-.98,105.81Z"/>
        <path class="cls-5" d="M213.33,382.62c4.77-.67,9.05.43,12.03-6.52,7.2-16.77,16.05-32.89,25.05-48.81,7.39-13.06,14.23-25.96,12.24-41.63-18.39,31.33-33.68,64.23-49.32,96.95Z"/>
        <path class="cls-5" d="M414.74,173.13c1.21-11.76-3.47-16.1-14.75-14.3-12.28,2-24.57,1.84-36.86.13-5.43,0-10.88,0-16.32,0l-1.24.65s-1.25-.63-1.24-.63c-3.38.01-6.77.02-10.15.03-2.71.26-5.42.51-8.12.76-5.4,6.49-9.06,13.89-11.42,21.96,1.8,4.99,4.96,11.71,9.76,12.25,6.05.68,7.21-9.31,17-15,15.91-9.25,32.45,5.73,48-5,3.1-2.14,5.3-4.71,8-4,4.85,1.28,7.47,12.16,7,21-.43,8.12-3.36,12.23-1,15,2.21,2.58,7.25,1.91,11,1-.01-1.32-.03-3.49,0-6.16.11-11.11-.68-17.58.36-27.71Z"/>
        <path class="cls-5" d="M264.13,281.74c4.61.29,10.24,1.44,10.62-5.33.7-12.63,8.58-21.47,15.23-30.97,12.33-17.64,25.19-35.02,22.18-58.46-16.01,31.59-32.02,63.18-48.03,94.76Z"/>
        <path class="cls-5" d="M363.13,158.97c12.29,1.71,24.58,1.87,36.86-.13"/>
        <path class="cls-5" d="M397.28,543.97c5.9-2.45,18.75,6.06,16-10.11-1.39,1.35-2.23.98-2.6-.84-4.59,3.01-9.19,6.02-13.78,9.04.53.56.66,1.2.38,1.92Z"/>
        <path class="cls-5" d="M346.94,544.04c-1.42-1.76-3.22-1.73-5.14-1.03,1.19,2.96,3.11,2.22,5.14,1.03Z"/>
        <path class="cls-5" d="M344.33,159s1.24.63,1.24.63"/>
        <path class="cls-5" d="M394.25,541.96c-.55.53-.7,1.16-.47,1.89,1.16.04,2.33.08,3.51.12.28-.72.15-1.36-.38-1.92-.9.32-1.78.29-2.66-.09Z"/>
        <path class="cls-5" d="M209.56,382.35c.66,1.77,1.62,2.26,3.06.73-1.02-.24-2.04-.48-3.06-.73Z"/>
        <path class="cls-5" d="M413.24,534.15c-.62-.89-1.48-1.27-2.56-1.13.37,1.83,1.2,2.19,2.6.84,0,0-.04.29-.04.29Z"/>
      </g>
      <path class="cls-2" d="M550.58,221.19c-12.01,23.54-26.75,45.43-41.02,67.6-3.42-6.54-6.96-11.48-9.68-14.89-4.4-5.52-8.37-9.17-13.5-13.9-6.53-6.01-11.85-10.12-13-11-6.66-5.11-16.27-11.68-29-18-6.61-3.03-15.04-7.96-23-16-2.6-2.63-4.83-5.26-6.72-7.78-.31-.62-.78-1.77-.83-3.29-.04-1.38.3-2.47.54-3.09,34.63,5.87,69.23,11.95,103.92,17.5,10.64,1.7,21.51,1.94,32.28,2.85Z"/>
    </g>
  </g>
</svg>